<svg width="512" height="512" viewBox="0 0 512 512" fill="none" xmlns="http://www.w3.org/2000/svg">
  <rect width="512" height="512" rx="112" fill="#0f172a"/>
  <path
    d="M96 340c58-94 118-142 180-142 23 0 38 9 52 22 8-54 26-92 54-114 12-10 30-6 38 8l14 26c8 15 1 34-15 40l-43 17c-7 50-20 91-40 122-21 33-52 49-93 49H128c-26 0-43-8-32-28Z"
    fill="#34d399"
  />
  <path d="M163 368h45v56h-45zM260 368h45v56h-45z" fill="#34d399"/>
  <circle cx="398" cy="135" r="9" fill="#f8fafc"/>
  <path d="M114 338c67-16 124-23 170-20 36 2 67 11 94 27" stroke="#064e3b" stroke-width="18" stroke-linecap="round" opacity=".45"/>
</svg>
